HIERARCHY
ROOT Hips
{
  OFFSET 0 0 0
  CHANNELS 6 Xposition Yposition Zposition Zrotation Yrotation Xrotation
  JOINT LeftThigh
  {
    OFFSET 8.409438 0 -5.917753
    CHANNELS 3 Zrotation Yrotation Xrotation
    JOINT LeftLeg
    {
      OFFSET 0 0 -42.358652
      CHANNELS 3 Zrotation Yrotation Xrotation
      JOINT LeftFoot
      {
        OFFSET 0 0 -39.357303
        CHANNELS 3 Zrotation Yrotation Xrotation
      }
    }
  }
  JOINT RightThigh
  {
    OFFSET -8.409438 0 -5.917753
    CHANNELS 3 Zrotation Yrotation Xrotation
    JOINT RightLeg
    {
      OFFSET 0 0 -42.358652
      CHANNELS 3 Zrotation Yrotation Xrotation
      JOINT RightFoot
      {
        OFFSET 0 0 -39.357303
        CHANNELS 3 Zrotation Yrotation Xrotation
      }
    }
  }
  JOINT SpineLow
  {
    OFFSET 0 0 4.719101
    CHANNELS 3 Zrotation Yrotation Xrotation
    JOINT SpineMid
    {
      OFFSET 0 0 12.899191
      CHANNELS 3 Zrotation Yrotation Xrotation
      JOINT Chest
      {
        OFFSET 0 0 12.899191
        CHANNELS 3 Zrotation Yrotation Xrotation
        JOINT LeftShoulder
        {
          OFFSET 7.550562 1.41573 9.438202
          CHANNELS 3 Zrotation Yrotation Xrotation
          JOINT LeftArm
          {
            OFFSET 9.155056 0 4.247191
            CHANNELS 3 Zrotation Yrotation Xrotation
            JOINT LeftForearm
            {
              OFFSET 0 0 25.771955
              CHANNELS 3 Zrotation Yrotation Xrotation
              JOINT LeftHand
              {
                OFFSET 0 0 25.197169
                CHANNELS 3 Zrotation Yrotation Xrotation
              }
            }
          }
        }
        JOINT RightShoulder
        {
          OFFSET -7.550562 1.41573 9.438202
          CHANNELS 3 Zrotation Yrotation Xrotation
          JOINT RightArm
          {
            OFFSET -9.155056 0 4.247191
            CHANNELS 3 Zrotation Yrotation Xrotation
            JOINT RightForearm
            {
              OFFSET 0 0 -25.771955
              CHANNELS 3 Zrotation Yrotation Xrotation
              JOINT RightHand
              {
                OFFSET 0 0 -25.197169
                CHANNELS 3 Zrotation Yrotation Xrotation
              }
            }
          }
        }
        JOINT Neck
        {
          OFFSET 0 0 15.101124
          CHANNELS 3 Zrotation Yrotation Xrotation
          JOINT Head
          {
            OFFSET 0 0 11.325843
            CHANNELS 3 Zrotation Yrotation Xrotation
            End Site
            {
              OFFSET 0 0 14.157303
            }
          }
        }
      }
    }
  }
}
MOTION
Frames: 13
Frame Time: 0.0
0.0  93.25843  0.0  -2.690487  -33.221474  -90.159959  26.855045  -12.97928  4.997095  2.760355  -1.98805  6.308496  3.671642  0.710325  0.831363  0.217296  -0.327519  -8.746686  -8.26118  4.946213  1.588245  4.458422  0.669424  0.813883  1.559277  -1.633602  0.663006  4.222944  -4.505575  1.708398  4.222944  -4.505574  1.708397  -20.276156  25.014717  -12.647334  130.610794  37.258123  -163.00318  34.972433  10.843342  19.523934  103.507828  20.053716  -2.063497  9.400745  -3.452082  22.696179  104.0328  43.02907  36.417799  8.315798  -26.604845  -111.010143  93.067865  29.31807  39.014363  0.162003  7.603259  4.46841  0.065443  5.703986  3.344344  
0.0  93.25843  0.0  -2.697189  -33.058541  -90.147402  26.819474  -12.98801  5.018057  2.666376  -1.976779  6.284961  3.619251  0.723385  0.821852  0.066535  -0.349165  -8.945229  -8.250644  5.174072  1.984765  4.488978  0.662415  0.792063  1.586582  -1.641719  0.65373  4.29816  -4.527824  1.680631  4.29816  -4.527824  1.680631  -20.263672  25.001631  -12.575197  130.587727  37.464928  -162.935051  34.539439  10.798186  19.49489  103.470094  19.789296  -1.995437  9.275811  -3.427698  22.733417  103.688278  43.043016  36.173197  8.324597  -26.562251  -110.969629  93.143893  29.41349  38.792025  -0.031205  7.605721  4.51764  -0.079893  5.704428  3.383625  
0.0  93.25843  0.0  -2.617002  -32.801543  -90.074677  26.265808  -12.900782  4.829665  2.907374  -1.967037  6.463904  3.592804  0.754257  0.845643  -0.594465  -0.352161  -9.408518  -8.671682  5.394146  2.323412  5.102723  0.673886  0.917178  1.601815  -1.624698  0.627426  4.341985  -4.479979  1.608695  4.341986  -4.479979  1.608695  -20.159592  24.930189  -12.528672  130.786338  37.607715  -162.85571  34.514165  10.729805  19.653525  103.533033  19.644881  -1.668925  9.413066  -3.430376  22.841619  102.940794  43.319275  35.773026  7.965915  -26.529275  -110.765378  92.722088  29.496054  38.129749  -0.163807  7.561638  4.60097  -0.179912  5.670377  3.447736  
0.0  93.25843  0.0  -2.623043  -32.766068  -90.074123  26.185819  -12.9256  4.863463  2.920002  -1.936795  6.469604  3.508953  0.790688  0.838073  -0.859082  -0.432655  -9.717147  -8.478534  5.723914  2.929098  5.143455  0.69712  0.877533  1.630747  -1.625752  0.628518  4.42108  -4.483599  1.609636  4.42108  -4.483599  1.609636  -20.067054  24.847161  -12.559257  130.986561  37.779535  -162.754567  34.466087  10.778631  19.67428  103.330159  19.521544  -1.583954  9.394127  -3.447412  22.790235  102.804734  43.309645  35.658819  7.798773  -26.501381  -110.619634  92.727678  29.476881  38.05042  -0.263208  7.574954  4.654098  -0.255123  5.679605  3.488748  
0.0  93.25843  0.0  -2.592695  -32.616495  -90.025939  25.504631  -12.904597  4.673421  3.034547  -1.892725  6.551188  3.618993  0.858523  0.996202  -1.464953  -0.570634  -10.198696  -9.154282  6.051505  3.350598  6.049694  0.777248  1.050539  1.608624  -1.616057  0.610109  4.361957  -4.455395  1.561407  4.361958  -4.455396  1.561407  -19.802623  24.703263  -12.542578  131.652878  37.886774  -162.474899  34.523348  10.78931  19.633406  103.066051  19.288397  -1.649401  9.657149  -3.500073  22.835937  102.695969  43.287744  35.569222  7.401918  -26.36303  -110.336751  92.726639  29.336765  38.066717  -0.082778  7.60916  4.813559  -0.122249  5.706637  3.605877  
0.0  93.25843  0.0  -2.549295  -32.741033  -90.092792  25.397391  -12.95403  4.781078  3.045503  -1.799471  6.571511  3.579102  0.904399  0.993759  -1.607289  -0.721025  -10.557291  -8.791641  6.562244  4.20081  6.041266  0.80152  0.967946  1.656674  -1.611131  0.621717  4.492777  -4.443799  1.590222  4.492777  -4.443799  1.590222  -19.662487  24.626327  -12.51946  132.118997  38.045257  -162.139965  34.209542  10.642925  19.497291  102.604779  19.091287  -1.76314  9.626781  -3.526899  22.836798  102.709688  43.271991  35.5452  6.955199  -26.106811  -110.010956  92.735599  29.041482  38.160856  -0.159684  7.640084  4.852221  -0.18058  5.729224  3.635758  
0.0  93.25843  0.0  -2.537773  -32.743805  -90.153612  24.716281  -13.032213  4.723529  3.105765  -1.66265  6.639572  3.731711  0.934764  1.06347  -1.851643  -0.951984  -10.963799  -9.078395  7.171211  4.942832  6.646776  0.809973  1.045514  1.691699  -1.607441  0.635267  4.587791  -4.435451  1.625164  4.587791  -4.435451  1.625164  -19.475797  24.554248  -12.475321  132.75325  38.193054  -161.80359  33.642501  10.274023  19.32052  102.158576  18.717753  -1.870897  9.401142  -3.525226  22.719529  102.904125  43.086196  35.523955  6.527822  -25.783589  -109.672508  92.829599  28.669299  38.373995  -0.104749  7.689581  4.928588  -0.140802  5.766785  3.692195  
0.0  93.25843  0.0  -2.427758  -32.829312  -90.296247  24.429972  -13.116834  4.868781  3.197341  -1.475133  6.743496  3.82568  0.967169  1.080674  -2.054657  -1.165301  -11.312307  -8.777129  7.838786  5.953971  6.660141  0.861496  0.911693  1.761991  -1.58908  0.619965  4.781541  -4.385834  1.579838  4.781541  -4.385834  1.579839  -19.36597  24.5308  -12.170901  133.357243  38.406155  -161.408981  32.699396  9.708279  19.147783  101.436671  18.357469  -1.908189  9.159277  -3.619137  22.999188  102.805043  43.12325  35.432069  6.133977  -25.455159  -109.350997  92.850357  28.300725  38.496478  -0.267483  7.679389  5.030202  -0.263879  5.757806  3.77036  
0.0  93.25843  0.0  -2.397267  -32.699365  -90.373891  23.080874  -13.314456  4.551858  3.879143  -1.202322  7.311943  3.972268  1.011271  1.178015  -2.883428  -1.514831  -11.630642  -7.931618  8.57273  6.966935  6.517263  0.892023  0.785938  1.790634  -1.578184  0.651911  4.858006  -4.359053  1.666087  4.858007  -4.359053  1.666087  -19.080471  24.530146  -12.157389  133.911935  38.64941  -161.067318  31.139326  8.933816  18.804907  101.138648  17.699817  -1.71135  8.748343  -3.581524  22.758575  102.918233  42.931983  35.319379  5.96245  -25.210892  -109.133809  92.986258  28.092921  38.671193  -0.258364  7.701467  4.975513  -0.256539  5.774453  3.729267  
0.0  93.25843  0.0  -2.248759  -32.578458  -90.508204  22.702999  -13.429887  4.597956  3.992385  -0.931456  7.58953  4.015664  1.034586  1.220703  -4.025073  -1.717056  -11.866444  -6.997796  9.127722  7.871214  6.491175  0.9697  0.702586  1.818405  -1.555061  0.666522  4.93349  -4.29764  1.705884  4.93349  -4.297641  1.705884  -18.858728  24.57091  -12.107936  134.536039  38.877248  -160.72186  29.695423  7.880255  18.745294  100.352802  17.264679  -1.377765  8.679296  -3.58682  22.922916  102.652911  42.99946  35.162069  5.770965  -25.040284  -108.986158  93.04584  27.984351  38.715001  -0.388228  7.681584  4.896018  -0.35263  5.758523  3.671398  
0.0  93.25843  0.0  -2.137771  -32.284635  -90.651567  21.473159  -13.747857  4.241443  3.684945  -0.582521  7.743863  4.804253  1.200861  1.877479  -5.362433  -1.846257  -12.011242  -5.529341  9.525398  8.876711  6.037603  1.075347  0.49166  1.84049  -1.538946  0.679533  4.993403  -4.255142  1.741208  4.993403  -4.255142  1.741208  -17.415065  25.231605  -11.632119  136.347502  38.991501  -160.711719  30.244018  6.250226  20.373626  99.72344  16.733799  -0.815614  8.247511  -3.535847  22.883098  102.401595  42.912617  34.946927  5.707818  -24.897372  -108.910104  93.017651  27.955859  38.633611  -0.492898  7.658195  4.86076  -0.430388  5.740166  3.646332  
0.0  93.25843  0.0  -1.964617  -31.715957  -90.803156  20.840292  -13.931702  4.048503  3.659796  -0.186399  8.364475  4.802469  1.211301  1.958269  -6.840672  -1.803686  -12.102721  -4.498063  9.764844  9.586061  6.024096  1.170112  0.445116  1.833954  -1.51353  0.681885  4.975878  -4.185732  1.749928  4.975878  -4.185732  1.749928  -17.226994  25.457275  -11.553557  137.085783  39.193496  -160.380438  28.910524  4.779716  20.699453  98.726457  16.273176  -0.179048  8.181752  -3.543733  23.101595  101.808097  42.947801  34.649336  5.461345  -24.653882  -108.773462  93.066642  27.860991  38.683375  -0.731022  7.634941  4.788981  -0.607642  5.720914  3.595585  
0.0  93.25843  0.0  -1.954179  -31.389621  -91.227336  20.498423  -14.60205  4.046251  3.231185  0.410609  8.926881  4.829768  1.234319  2.087435  -7.628653  -1.721469  -11.65079  -3.35118  9.865675  10.188962  5.699658  1.280389  0.297092  1.888367  -1.526238  0.73989  5.120789  -4.226278  1.904129  5.120789  -4.226278  1.904129  -17.06935  25.831335  -11.586791  137.913128  39.319037  -160.158502  27.788878  3.015358  21.441018  97.392686  15.882488  0.394775  7.785619  -3.429615  23.129965  100.376293  43.424328  34.001207  5.948536  -24.341734  -108.888987  92.869424  27.601545  38.569907  -1.058334  7.619002  4.721364  -0.851808  5.706513  3.549058  
